<svg width="34" height="34" viewBox="0 0 34 34" fill="none" xmlns="http://www.w3.org/2000/svg">
<path d="M2.83654 25.3017C2.83654 24.5998 2.83064 23.8978 2.8385 23.1939C2.8444 22.6905 3.10002 22.3936 3.5031 22.3936C3.90226 22.3936 4.16181 22.6964 4.16377 23.1958C4.16967 24.4365 4.16574 25.6792 4.16574 26.92C4.16377 28.6464 5.26096 29.7868 6.98539 29.8222C8.04718 29.8438 9.10897 29.8261 10.1708 29.8281C10.5856 29.8281 10.8668 30.0051 10.9179 30.4396C10.9612 30.8191 10.6958 31.1357 10.275 31.1396C8.93593 31.1494 7.591 31.2045 6.25983 31.0983C4.52164 30.9607 3.0017 29.3267 2.87193 27.5551C2.81687 26.8079 2.8621 26.0528 2.8621 25.3017C2.85227 25.3017 2.8444 25.3017 2.83654 25.3017Z" fill="#828282"/>
<path d="M31.1551 25.2998C31.1551 25.9211 31.1669 26.5405 31.1531 27.1618C31.1059 29.3503 29.4877 31.0374 27.2973 31.1337C26.1391 31.1848 24.979 31.1593 23.8189 31.1494C23.3431 31.1455 23.0717 30.882 23.0717 30.4907C23.0717 30.0935 23.345 29.8379 23.8209 29.832C24.8335 29.8222 25.8461 29.832 26.8588 29.8261C28.7287 29.8163 29.8279 28.7014 29.8279 26.8236C29.8279 25.6321 29.8259 24.4385 29.8279 23.247C29.8298 22.7043 30.0736 22.3956 30.4866 22.3936C30.9014 22.3916 31.1492 22.6984 31.1531 23.2411C31.159 23.9273 31.1551 24.6135 31.1551 25.2998Z" fill="#828282"/>
<path d="M2.83925 8.32872C2.83925 7.80569 2.82549 7.28463 2.84122 6.7616C2.91201 4.63212 4.53419 2.95881 6.66367 2.86443C7.81984 2.81331 8.97995 2.83887 10.1381 2.84477C10.6434 2.84673 10.9285 3.11022 10.9226 3.51724C10.9167 3.92426 10.6316 4.16218 10.1145 4.16611C9.13528 4.17397 8.15607 4.16611 7.17687 4.16807C5.26564 4.17594 4.16453 5.27706 4.16649 7.17255C4.16649 8.13603 4.16846 9.09754 4.16649 10.061C4.16453 10.5978 3.92661 10.9104 3.51762 10.9222C3.0929 10.9321 2.84122 10.6076 2.83925 10.0414C2.83729 9.47113 2.83925 8.89894 2.83925 8.32872C2.83729 8.32872 2.83925 8.32872 2.83925 8.32872Z" fill="#828282"/>
<path d="M25.709 2.86486C26.2969 2.86486 26.8848 2.83929 27.4708 2.86879C29.3014 2.96317 30.9786 4.52833 31.1104 6.36483C31.2028 7.66455 31.1556 8.97409 31.1497 10.2777C31.1477 10.6848 30.8764 10.8971 30.4851 10.9148C30.1193 10.9325 29.8362 10.6258 29.8323 10.2128C29.8244 9.16875 29.8283 8.12466 29.8303 7.08056C29.8323 5.3345 28.7253 4.19799 26.9733 4.17047C25.9135 4.15474 24.8517 4.1921 23.7919 4.1449C23.5559 4.13507 23.2433 3.91092 23.1351 3.70053C23.0525 3.53929 23.1803 3.19716 23.3219 3.02019C23.4261 2.89042 23.6994 2.85502 23.9 2.84913C24.5037 2.8275 25.1073 2.84126 25.7109 2.84126C25.709 2.84913 25.709 2.85699 25.709 2.86486Z" fill="#828282"/>
<path d="M17.1159 25.0757C15.5684 25.0757 14.2353 24.7689 13.0378 23.9765C12.8491 23.8507 12.6603 23.715 12.501 23.5538C12.2258 23.2746 12.1668 22.9403 12.444 22.6355C12.7075 22.3465 13.0536 22.2973 13.3642 22.5549C14.3395 23.365 15.4839 23.6875 16.7187 23.7327C18.1246 23.7819 19.444 23.5046 20.5765 22.5982C20.9285 22.315 21.3277 22.3465 21.5754 22.6493C21.8192 22.9462 21.7681 23.3355 21.4063 23.6383C20.3701 24.5074 19.1451 24.9105 17.8179 25.0423C17.5406 25.0698 17.2634 25.0698 17.1159 25.0757Z" fill="#828282"/>
<path d="M18.3486 15.7362C18.3486 16.5699 18.3525 17.4016 18.3486 18.2353C18.3427 19.48 17.5188 20.3196 16.2702 20.3569C16.0579 20.3628 15.8455 20.3608 15.6332 20.351C15.2202 20.3333 14.9804 20.0934 14.9764 19.7041C14.9725 19.3148 15.2045 19.067 15.6174 19.0415C15.8121 19.0297 16.0087 19.0415 16.2054 19.0297C16.7756 18.9963 16.9938 18.7701 16.9958 18.1979C16.9997 16.5148 16.984 14.8336 17.0115 13.1505C17.0155 12.891 17.1433 12.5547 17.332 12.3954C17.7587 12.0396 18.3329 12.4131 18.3447 13.0384C18.3584 13.939 18.3466 14.8376 18.3486 15.7362Z" fill="#828282"/>
<path d="M10.248 13.9602C10.248 13.6338 10.2342 13.3074 10.2519 12.983C10.2755 12.576 10.4741 12.3026 10.9126 12.283C11.3097 12.2653 11.585 12.5504 11.5949 13.0066C11.6086 13.6574 11.6086 14.3102 11.5949 14.961C11.585 15.3681 11.2901 15.6512 10.9126 15.6335C10.5075 15.6139 10.301 15.374 10.2499 14.9866C10.246 14.9551 10.248 14.9217 10.248 14.8883C10.248 14.5796 10.248 14.2709 10.248 13.9602Z" fill="#828282"/>
<path d="M23.7445 13.98C23.7445 14.3064 23.7563 14.6328 23.7406 14.9573C23.7209 15.3663 23.4338 15.6415 23.0602 15.6376C22.6847 15.6337 22.4055 15.3584 22.3976 14.9435C22.3858 14.2927 22.3858 13.6399 22.3996 12.989C22.4094 12.5761 22.6178 12.3107 23.0524 12.2851C23.4476 12.2615 23.7229 12.5505 23.7425 13.0028C23.7563 13.3292 23.7445 13.6556 23.7445 13.98Z" fill="#828282"/>
</svg>
